<?xml version="1.0" encoding="utf-8"?>
<!-- Generator: Adobe Illustrator 19.0.0, SVG Export Plug-In . SVG Version: 6.00 Build 0)  -->
<!DOCTYPE svg PUBLIC "-//W3C//DTD SVG 1.1//EN" "http://www.w3.org/Graphics/SVG/1.1/DTD/svg11.dtd">
<svg version="1.1" id="Layer_1" xmlns="http://www.w3.org/2000/svg" xmlns:xlink="http://www.w3.org/1999/xlink" x="0px" y="0px"
	 viewBox="-194 206 121 121" style="enable-background:new -194 206 121 121;" xml:space="preserve">
<style type="text/css">
	.st0{fill:#C1001F;}
	.st1{fill:#005EA4;}
	.st2{fill:#E7B137;}
</style>
<g>
	<g>
		<g>
			<path class="st0" d="M-164.2,300.6c-7.1-0.7-14.3-1.2-20.6-3.1c14,9.7,35.3,13.6,57.6,9c21.8-4.5,39.5-16,48.5-29.9
				c-9.7,8.6-23,13.3-35.5,17C-129.9,298.2-147.9,302.1-164.2,300.6"/>
		</g>
		<g>
			<path class="st0" d="M-100,221.3c-13.1-5.2-29.5-6.7-46.5-3.2c-21,4.3-38.2,15.2-47.5,28.4c10.4-9.9,26.4-16.1,39.8-20.2
				C-137.3,221-117.5,217.3-100,221.3"/>
		</g>
	</g>
	<g>
		<path class="st1" d="M-109.2,314.2l-1.9,0.5l-0.7-2.8c-0.1-0.4-0.2-0.6-0.4-0.8c-0.2-0.2-0.4-0.2-0.7-0.1
			c-0.3,0.1-0.5,0.2-0.6,0.4c-0.1,0.2-0.2,0.4-0.3,0.7l0.8,3.1l-1.9,0.5l-0.7-2.8c-0.1-0.4-0.2-0.6-0.4-0.8
			c-0.2-0.2-0.4-0.2-0.7-0.1c-0.1,0-0.3,0.1-0.4,0.2s-0.2,0.2-0.2,0.3c-0.1,0.1-0.1,0.2-0.2,0.4c-0.1,0.2-0.1,0.3-0.1,0.3l0.8,3.1
			l-1.9,0.5l-1.4-5.3l1.9-0.6l0.2,0.8c0.2-0.4,0.4-0.7,0.7-0.9c0.3-0.2,0.6-0.4,1-0.5c0.2,0,0.4-0.1,0.5-0.1c0.2,0,0.3,0,0.5,0
			c0.2,0,0.4,0.1,0.5,0.2c0.2,0.1,0.3,0.2,0.4,0.4c0.2-0.4,0.5-0.8,0.7-1c0.3-0.3,0.6-0.4,1.1-0.6c0.4-0.1,0.8-0.1,1.1,0
			c0.3,0.1,0.6,0.3,0.8,0.6c0.2,0.3,0.4,0.7,0.5,1.1L-109.2,314.2"/>
	</g>
	<g>
		<g>
			<path class="st1" d="M-120.2,311.3l2.2-0.6l0.1,0.5c0.2-0.2,0.3-0.4,0.5-0.6l0,0c0.3-0.2,0.6-0.4,1-0.5l0,0
				c0.2,0,0.4-0.1,0.6-0.1l0,0h0.1l0,0c0.2,0,0.3,0,0.5,0l0,0c0.2,0,0.4,0.1,0.6,0.2l0,0c0.1,0.1,0.2,0.2,0.3,0.2l0,0
				c0.2-0.3,0.4-0.6,0.6-0.8l0,0c0.3-0.3,0.7-0.5,1.1-0.6l0,0c0.2-0.1,0.5-0.1,0.7-0.1l0,0c0.2,0,0.4,0,0.5,0.1l0,0
				c0.4,0.1,0.7,0.3,0.9,0.6l0,0c0.2,0.3,0.4,0.7,0.5,1.2l0,0l0.9,3.2h-0.2h0.2v0.2l-2.1,0.7l-0.8-3c-0.1-0.4-0.2-0.6-0.4-0.7l0,0
				c-0.1-0.1-0.2-0.1-0.3-0.1l0,0c-0.1,0-0.1,0-0.2,0l0,0c-0.2,0.1-0.4,0.2-0.5,0.3l0,0c-0.1,0.2-0.2,0.4-0.3,0.6l0,0l0.8,3.2
				l-2.2,0.6l-0.8-3c-0.1-0.3-0.2-0.6-0.3-0.7l0,0c-0.1-0.1-0.2-0.1-0.3-0.1l0,0c-0.1,0-0.1,0-0.2,0l0,0c-0.1,0-0.2,0.1-0.3,0.1l0,0
				c-0.1,0.1-0.2,0.1-0.2,0.2l0,0c0,0.1-0.1,0.2-0.2,0.4l0,0c0,0.1-0.1,0.2-0.1,0.3l0,0l0.8,3.2l-2.2,0.6L-120.2,311.3L-120.2,311.3
				z M-119.8,311.5l1.3,4.9l1.5-0.4l-0.8-3v-0.1c0,0,0.1-0.1,0.1-0.3l0,0c0.1-0.2,0.1-0.3,0.2-0.4l0,0c0.1-0.1,0.2-0.2,0.3-0.3l0,0
				c0.1-0.1,0.3-0.2,0.4-0.2l0,0c0.1,0,0.2,0,0.3,0l0,0c0.2,0,0.4,0.1,0.6,0.2l0,0c0.2,0.2,0.3,0.5,0.4,0.9l0,0l0.7,2.6l1.5-0.4
				l-0.8-3v-0.1c0.1-0.3,0.2-0.5,0.4-0.8l0,0c0.1-0.2,0.4-0.4,0.7-0.5l0,0c0.1,0,0.2,0,0.3,0l0,0c0.2,0,0.4,0.1,0.5,0.2l0,0
				c0.2,0.2,0.4,0.5,0.5,0.9l0,0l0.7,2.6l1.5-0.4l-0.7-2.9c-0.1-0.4-0.3-0.8-0.5-1l0,0c-0.2-0.3-0.4-0.4-0.7-0.5l0,0
				c-0.1,0-0.3-0.1-0.4-0.1l0,0c-0.2,0-0.4,0-0.6,0.1l0,0c-0.4,0.1-0.7,0.3-1,0.5l0,0c-0.3,0.2-0.5,0.6-0.7,1l0,0l-0.1,0.3l-0.2-0.2
				c-0.1-0.1-0.2-0.3-0.4-0.4l0,0c-0.1-0.1-0.3-0.2-0.5-0.2l0,0c-0.1,0-0.3,0-0.4,0l0,0h-0.1l0,0c-0.2,0-0.3,0-0.5,0.1l0,0
				c-0.4,0.1-0.7,0.2-0.9,0.4l0,0c-0.2,0.2-0.4,0.5-0.6,0.8l0,0l-0.2,0.4l-0.3-1L-119.8,311.5L-119.8,311.5z"/>
		</g>
	</g>
	<g>
		<path class="st1" d="M-108.1,306.6c0.1,0.2,0.1,0.4,0,0.6c-0.1,0.2-0.3,0.3-0.5,0.4c-0.1,0.1-0.3,0.1-0.4,0
			c-0.1,0-0.3-0.1-0.4-0.2c-0.1-0.1-0.2-0.2-0.2-0.4c-0.1-0.2-0.1-0.4,0-0.6c0.1-0.2,0.2-0.3,0.5-0.4c0.2-0.1,0.4-0.1,0.6,0
			C-108.3,306.3-108.2,306.3-108.1,306.6 M-105.7,312.9l-1.8,0.6l-1.8-5.2l1.8-0.6L-105.7,312.9z"/>
	</g>
	<g>
		<path class="st1" d="M-109.6,308.2l2.2-0.8l1.9,5.3l-0.2,0.2l0.2-0.1l0.1,0.2l-2.2,0.8L-109.6,308.2L-109.6,308.2z M-109.1,308.5
			l1.7,4.8l1.5-0.5l-1.7-4.9L-109.1,308.5L-109.1,308.5z M-109,307.8c-0.2,0-0.3-0.1-0.5-0.2l0,0c-0.1-0.1-0.2-0.3-0.3-0.4l0,0
			c0-0.1-0.1-0.2-0.1-0.3l0,0c0-0.1,0-0.3,0.1-0.4l0,0c0.1-0.2,0.3-0.4,0.6-0.5l0,0c0.1,0,0.2-0.1,0.3-0.1l0,0c0.1,0,0.3,0,0.4,0.1
			l0,0c0.2,0.1,0.4,0.3,0.5,0.6l0,0l-0.2,0.1l0.2-0.1c0,0.1,0.1,0.2,0.1,0.3l0,0c0,0.1,0,0.3-0.1,0.4l0,0c-0.1,0.2-0.3,0.4-0.6,0.5
			l0,0C-108.7,307.8-108.8,307.9-109,307.8L-109,307.8C-108.9,307.8-109,307.8-109,307.8L-109,307.8z M-109.1,306.3
			c-0.2,0.1-0.3,0.2-0.4,0.3l0,0c0,0.1-0.1,0.2-0.1,0.3l0,0c0,0.1,0,0.1,0,0.2l0,0c0,0.1,0.1,0.2,0.2,0.3l0,0
			c0.1,0.1,0.2,0.1,0.3,0.1l0,0h0.1l0,0c0.1,0,0.1,0,0.2,0l0,0c0.2-0.1,0.3-0.2,0.4-0.3l0,0c0-0.1,0.1-0.2,0.1-0.3l0,0
			c0-0.1,0-0.1,0-0.2l0,0l0,0c-0.1-0.2-0.2-0.3-0.3-0.4l0,0c-0.1,0-0.2-0.1-0.3-0.1l0,0C-108.9,306.3-109,306.3-109.1,306.3
			L-109.1,306.3z"/>
	</g>
	<g>
		<path class="st1" d="M-100.1,310.3c-0.1,0.2-0.4,0.4-0.7,0.6c-0.3,0.2-0.6,0.4-0.9,0.5c-1.3,0.5-2.2,0.2-2.7-1.1l-0.8-2l-0.8,0.3
			l-0.1-0.3l1.4-3.4l0.2-0.1l0.6,1.5l1.7-0.7l0.5,1.2l-1.7,0.7l0.7,1.6c0.1,0.2,0.2,0.3,0.2,0.4c0.1,0.1,0.2,0.2,0.3,0.2
			c0.1,0,0.3,0,0.5-0.1c0.3-0.1,0.6-0.4,1-0.8L-100.1,310.3"/>
	</g>
	<g>
		<path class="st1" d="M-104.5,310.3l-0.7-1.8l-0.8,0.3l-0.2-0.5l1.4-3.6l0.4-0.2l0.6,1.5l1.7-0.7l0.7,1.6l-1.7,0.7l0.6,1.5
			c0.1,0.2,0.1,0.3,0.2,0.4l0,0c0,0.1,0.1,0.1,0.2,0.1l0,0c0,0,0,0,0.1,0l0,0c0.1,0,0.2,0,0.3-0.1l0,0c0.2-0.1,0.6-0.4,0.9-0.8l0,0
			l0.2-0.2l0.7,1.7l-0.2,0.1l0.2-0.1v0.1l-0.1,0.1c-0.2,0.2-0.4,0.4-0.7,0.6l0,0c-0.3,0.2-0.6,0.4-0.9,0.5l0,0
			c-0.4,0.2-0.8,0.3-1.1,0.3l0,0l0,0l0,0C-103.5,311.8-104.1,311.3-104.5,310.3L-104.5,310.3z M-104.1,310.2
			c0.4,0.8,0.8,1.2,1.5,1.2l0,0c0.3,0,0.6-0.1,1-0.2l0,0c0.3-0.1,0.6-0.3,0.8-0.5l0,0c0.2-0.2,0.4-0.3,0.6-0.5l0,0l-0.4-1
			c-0.3,0.3-0.6,0.5-0.9,0.7l0,0c-0.2,0.1-0.3,0.1-0.5,0.1l0,0c-0.1,0-0.1,0-0.2,0l0,0c-0.2,0-0.3-0.1-0.4-0.3l0,0
			c-0.1-0.1-0.2-0.3-0.2-0.5l0,0l-0.7-1.8l1.7-0.7l-0.4-0.9l-1.7,0.7l-0.6-1.5l-1.3,3.2v0.1l0.8-0.3L-104.1,310.2L-104.1,310.2z"/>
	</g>
	<g>
		<path class="st1" d="M-96.7,299.2c0.1,0.2,0.1,0.4,0.1,0.6s-0.2,0.3-0.3,0.5c-0.2,0.1-0.4,0.1-0.6,0.1c-0.2-0.1-0.3-0.2-0.4-0.3
			c-0.1-0.2-0.1-0.4-0.1-0.6c0-0.2,0.2-0.4,0.3-0.5c0.2-0.1,0.4-0.1,0.6-0.1C-96.9,299-96.8,299.1-96.7,299.2 M-90.1,301
			c0.4,0.6,0.5,1.2,0.6,1.9c0,0.7-0.1,1.3-0.5,1.9c-0.4,0.6-0.9,1.2-1.7,1.6c-0.8,0.5-1.6,0.7-2.3,0.7c-0.7,0-1.4-0.1-1.9-0.5
			c-0.6-0.3-1-0.8-1.4-1.4c-0.3-0.6-0.5-1.2-0.6-1.9c0-0.7,0.1-1.3,0.5-1.9c0.4-0.6,0.9-1.2,1.7-1.7c0.6-0.4,1.2-0.6,1.7-0.7
			c0.6-0.1,1.1-0.1,1.6,0c0.5,0.1,0.9,0.3,1.3,0.6C-90.7,300.2-90.3,300.6-90.1,301z M-94.3,297.8c0.1,0.2,0.1,0.4,0.1,0.6
			c0,0.2-0.2,0.3-0.3,0.5c-0.3,0.1-0.5,0.1-0.7,0c-0.2-0.1-0.3-0.2-0.4-0.3c-0.1-0.2-0.1-0.4-0.1-0.6c0-0.2,0.2-0.3,0.3-0.5
			c0.2-0.1,0.4-0.1,0.6-0.1C-94.6,297.6-94.4,297.7-94.3,297.8z M-92,302.2c-0.1-0.2-0.3-0.4-0.5-0.6c-0.2-0.2-0.4-0.3-0.6-0.3
			c-0.2-0.1-0.5-0.1-0.7,0c-0.3,0-0.5,0.1-0.8,0.3c-0.5,0.3-0.8,0.7-1,1.2c-0.1,0.5,0,1,0.3,1.5c0.3,0.5,0.7,0.8,1.2,0.9
			c0.5,0.1,1,0,1.5-0.3c0.4-0.2,0.6-0.5,0.8-0.8c0.2-0.3,0.2-0.6,0.2-0.9C-91.7,302.8-91.8,302.5-92,302.2z"/>
	</g>
	<g>
		<path class="st1" d="M-96,306.8c-0.6-0.4-1.1-0.8-1.4-1.4l0,0c-0.4-0.6-0.6-1.2-0.6-1.9l0,0c0-0.1,0-0.1,0-0.2l0,0
			c0-0.6,0.2-1.3,0.5-1.9l0,0c0.4-0.7,1-1.2,1.8-1.7l0,0c0.6-0.4,1.2-0.6,1.8-0.7l0,0c0.3,0,0.5-0.1,0.8-0.1l0,0
			c0.3,0,0.6,0,0.9,0.1l0,0c0.5,0.1,1,0.4,1.4,0.7l0,0c0.4,0.3,0.8,0.7,1,1.2l0,0l-0.2,0.1l-0.2,0.1c-0.3-0.4-0.6-0.8-0.9-1.1l0,0
			c-0.4-0.3-0.8-0.5-1.2-0.6l0,0c-0.2-0.1-0.5-0.1-0.8-0.1l0,0c-0.2,0-0.5,0-0.7,0.1l0,0c-0.5,0.1-1.1,0.3-1.7,0.7l0,0
			c-0.8,0.5-1.3,1-1.7,1.6l0,0c-0.3,0.6-0.5,1.1-0.5,1.7l0,0c0,0.1,0,0.1,0,0.2l0,0c0,0.6,0.2,1.2,0.5,1.8l0,0
			C-96.9,306-96.4,306.4-96,306.8L-96,306.8c0.6,0.2,1.2,0.4,1.8,0.4l0,0h0.1l0,0c0.7,0,1.4-0.2,2.2-0.7l0,0c0.8-0.5,1.3-1,1.7-1.6
			l0,0c0.3-0.6,0.5-1.1,0.5-1.7l0,0v-0.1l0,0c0-0.6-0.2-1.2-0.5-1.8l0,0l0.2-0.1l0.2-0.1c0.4,0.6,0.6,1.3,0.6,2l0,0v0.1l0,0
			c0,0.7-0.2,1.3-0.5,1.9l0,0c-0.4,0.7-1,1.2-1.8,1.7l0,0c-0.8,0.5-1.6,0.7-2.4,0.8l0,0H-94l0,0C-94.8,307.3-95.4,307.1-96,306.8
			L-96,306.8z M-94.2,305.3c-0.5-0.1-1-0.5-1.3-1l0,0c-0.2-0.4-0.3-0.8-0.3-1.1l0,0c0-0.2,0-0.3,0.1-0.5l0,0c0.1-0.5,0.5-1,1-1.3
			l0,0c0.3-0.2,0.6-0.3,0.9-0.3l0,0c0.1,0,0.2,0,0.3,0l0,0c0.2,0,0.3,0,0.5,0.1l0,0c0.3,0.1,0.5,0.2,0.7,0.4l0,0
			c0.2,0.2,0.4,0.4,0.5,0.6l0,0l-0.2,0.1l-0.2,0.1c-0.1-0.2-0.3-0.4-0.5-0.5l0,0c-0.2-0.1-0.4-0.2-0.6-0.3l0,0c-0.1,0-0.2,0-0.4,0
			l0,0c-0.1,0-0.2,0-0.3,0l0,0c-0.2,0-0.5,0.1-0.7,0.3l0,0c-0.5,0.3-0.8,0.6-0.9,1.1l0,0c0,0.1,0,0.2,0,0.4l0,0
			c0,0.3,0.1,0.6,0.3,0.9l0,0c0.3,0.5,0.6,0.7,1,0.8l0,0c0.1,0,0.2,0,0.4,0l0,0c0.3,0,0.6-0.1,1-0.3l0,0c0.3-0.2,0.6-0.4,0.7-0.7
			l0,0c0.1-0.2,0.2-0.5,0.2-0.7l0,0v-0.1l0,0c0-0.3-0.1-0.6-0.3-0.9l0,0l0.2-0.1l0.2-0.1c0.2,0.3,0.3,0.7,0.3,1.1l0,0v0.1l0,0
			c0,0.3-0.1,0.6-0.2,0.9l0,0c-0.2,0.3-0.5,0.6-0.8,0.8l0,0c-0.4,0.2-0.8,0.3-1.2,0.3l0,0C-93.9,305.3-94,305.3-94.2,305.3
			L-94.2,305.3z M-97.6,300.5c-0.2-0.1-0.4-0.2-0.6-0.4l0,0c0-0.2,0-0.3,0-0.5l0,0c0-0.1,0-0.2,0-0.2l0,0c0.1-0.2,0.2-0.4,0.4-0.6
			l0,0c0.1-0.1,0.3-0.1,0.5-0.1l0,0c0.1,0,0.2,0,0.2,0l0,0c0.2,0.1,0.4,0.2,0.6,0.4l0,0l-0.2,0.1l-0.2,0.1c-0.1-0.1-0.2-0.2-0.3-0.3
			l0,0c-0.1,0-0.1,0-0.1,0l0,0c-0.1,0-0.2,0-0.3,0.1l0,0c-0.1,0.1-0.2,0.2-0.3,0.3l0,0v0.1l0,0c0,0.1,0,0.2,0.1,0.3l0,0
			c0.1,0.1,0.2,0.2,0.3,0.3l0,0c0.1,0,0.1,0,0.2,0l0,0c0.1,0,0.2,0,0.3-0.1l0,0c0.1-0.1,0.2-0.2,0.3-0.3l0,0c0-0.1,0-0.1,0-0.1l0,0
			c0-0.1,0-0.2-0.1-0.3l0,0l0.2-0.1l0.2-0.1c0.1,0.1,0.1,0.3,0.1,0.5l0,0c0,0.1,0,0.2,0,0.2l0,0c-0.1,0.2-0.2,0.4-0.4,0.6l0,0
			c-0.1,0.1-0.3,0.1-0.5,0.1l0,0C-97.4,300.5-97.5,300.5-97.6,300.5L-97.6,300.5z M-95.2,299.1c-0.2-0.1-0.4-0.2-0.6-0.4l0,0
			c-0.1-0.1-0.1-0.3-0.1-0.5l0,0c0-0.1,0-0.2,0-0.2l0,0c0.1-0.2,0.2-0.4,0.4-0.6l0,0c0.1-0.1,0.3-0.1,0.5-0.1l0,0c0.1,0,0.2,0,0.2,0
			l0,0c0.2,0.1,0.4,0.2,0.6,0.4l0,0l-0.2,0.1l-0.2,0.1c-0.1-0.1-0.2-0.2-0.3-0.3l0,0c-0.1,0-0.1,0-0.1,0l0,0c-0.1,0-0.2,0-0.3,0.1
			l0,0c-0.1,0.1-0.2,0.2-0.3,0.3l0,0v0.1l0,0c0,0.1,0,0.2,0.1,0.3l0,0c0.1,0.1,0.2,0.2,0.3,0.3l0,0h0.1l0,0c0.1,0,0.2,0,0.3-0.1l0,0
			c0.1-0.1,0.2-0.2,0.3-0.3l0,0c0-0.1,0-0.1,0-0.1l0,0c0-0.1,0-0.2-0.1-0.3l0,0l0.2-0.1l0.2-0.1c0.1,0.1,0.1,0.3,0.1,0.5l0,0
			c0,0.1,0,0.2,0,0.2l0,0c-0.1,0.2-0.2,0.4-0.4,0.6l0,0c-0.1,0.1-0.3,0.1-0.5,0.1l0,0C-95,299.1-95.1,299.1-95.2,299.1L-95.2,299.1z
			"/>
	</g>
	<g>
		<polyline class="st1" points="-79.7,297.3 -81.8,299.1 -86.2,298.3 -84,301 -85.7,302.4 -90.5,296.7 -88.8,295.3 -86.6,297.8 
			-86.8,293.5 -84.9,291.9 -84.7,296.4 -79.7,297.3 		"/>
	</g>
	<g>
		<path class="st1" d="M-90.8,296.7l2-1.7l2,2.3l-0.1-3.9l2.2-1.9l0.2,4.7l4.9,0.9v0.2v-0.2l0.4,0.1l-2.4,2.1l-4-0.7l2.1,2.4l-2,1.7
			L-90.8,296.7L-90.8,296.7z M-90.3,296.8l4.6,5.4l1.4-1.2l-2.2-2.6l0,0l-2.4-2.8L-90.3,296.8L-90.3,296.8z M-81.9,298.9l1.7-1.5
			l-4.8-0.9l-0.2-4.2l-1.5,1.3l0.1,4.5L-81.9,298.9L-81.9,298.9z"/>
	</g>
	<g>
		<polyline class="st2" points="-122.4,245.9 -126,243.2 -125.1,241 -121.7,245.1 -122.4,245.9 		"/>
	</g>
	<g>
		<polyline class="st2" points="-118.3,243 -119.4,243.1 -120.8,238.7 -118.7,237.8 -118.3,243 		"/>
	</g>
	<g>
		<polyline class="st2" points="-114.8,244 -115.7,243.5 -114,238.8 -111.7,239.9 -114.8,244 		"/>
	</g>
	<g>
		<polyline class="st2" points="-112.8,247.6 -113.3,246.5 -109.1,244.1 -108.3,245.8 -112.8,247.6 		"/>
	</g>
	<g>
		<polyline class="st2" points="-184.6,289.1 -187.4,292.7 -189.6,291.8 -185.4,288.5 -184.6,289.1 		"/>
	</g>
	<g>
		<polyline class="st2" points="-187.5,285.1 -187.4,286.2 -191.9,287.4 -192.6,285.3 -187.5,285.1 		"/>
	</g>
	<g>
		<polyline class="st2" points="-186.4,281.5 -186.9,282.4 -191.5,280.6 -190.4,278.3 -186.4,281.5 		"/>
	</g>
	<g>
		<polyline class="st2" points="-182.7,279.7 -183.8,280.1 -186.2,275.9 -184.5,275.1 -182.7,279.7 		"/>
	</g>
	<g>
		<path class="st2" d="M-95.2,241c-0.1-0.9-1.9-2.6-1.9-2.6s0.9-1.5,0.7-3.4c-1.7-0.2-3.7,0.9-3.7,0.9s-1.5-1.7-3-2.1
			c-0.6,1.8,0.1,3.7,0.1,3.7s-1.9,0.5-2.7,2.2c1.2,1,3.5,0.8,3.5,0.8s-0.7,2.6,0.8,3.9c0.8-0.6,1.5-1.7,1.9-2.4
			c-0.8-0.1-1.5-0.9-1.6-1.8c-0.1-1.1,0.5-2.1,1.5-2.2c1-0.1,1.8,0.7,2,1.8c0.1,0.6-0.1,1.2-0.4,1.6
			C-97.1,241.5-95.9,241.5-95.2,241"/>
	</g>
	<path class="st1" d="M-154.4,288.3c-3-3.9-7.3-9.2-11.1-13.5c-1.9-2.2-3.7-4.1-5.2-5.5c-0.7-0.7-1.4-1.3-2-1.7
		c-0.1,0-0.1-0.1-0.2-0.1c1-1.1,2.4-3.1,4.1-5.6c5.5-8.6,13.5-23.3,15.1-27c0.1-0.3,0.1-0.7-0.2-0.9c-0.3-0.2-0.6-0.2-0.9,0
		l-6.4,4.4c-0.1,0.1-0.2,0.2-0.2,0.2c-0.7,1.3-3.9,7.6-7.1,13.6c-1.6,3-3.2,6-4.5,8.1c-0.7,1.1-1.2,2-1.7,2.6
		c-0.1,0.1-0.2,0.2-0.2,0.3c-0.2-0.4-0.3-0.8-0.4-1.3c-0.2-0.9-0.5-2-0.7-2.9c-0.7-2.3-1-3.4-1.1-4.2c-0.1-0.5-0.2-0.9-0.3-1.4
		l2.1-1c0.2-0.1,0.4-0.3,0.4-0.5c0.1-0.2,0-0.5-0.2-0.7l-2.1-2.5c-0.2-0.3-0.6-0.4-1-0.2l-7.2,4.2c-0.2,0.1-0.3,0.3-0.4,0.5
		c0,0.2,0,0.4,0.2,0.6l1.6,2c0.2,0.3,0.6,0.4,0.9,0.2c0.2-0.1,0.4-0.2,0.6-0.3c1.3,4.3,2.5,9.1,2.6,13.5c0,1.2,0.1,2.4,0.1,3.5
		c0,1.1-0.1,2.2-0.2,3.4c-0.1,0.9-0.4,2.6-0.7,4c-0.1,0.7-0.3,1.4-0.4,1.8c-0.5-0.3-0.9-0.5-1.4-0.5c-0.4,0-0.7,0.1-1,0.3
		c-0.7,0.6-0.8,1.4-1.1,1.8c-0.1,0.2-0.1,0.4-0.1,0.6c0.1,0.2,0.2,0.4,0.4,0.5c0.4,0.2,2.2,1.2,3.9,2.2c0.9,0.5,1.8,1,2.5,1.3
		c0.4,0.2,0.7,0.3,1,0.4s0.5,0.2,0.8,0.2c0.1,0,0.3,0,0.6-0.2l1-0.9c0.2-0.2,0.3-0.4,0.2-0.6c0-0.2-0.1-0.4-0.3-0.6l-3.1-2.1
		c1.1-2.6,1.7-5.5,2-8.1c0.2-1.9,0.4-3.6,0.5-4.9c0,0.1,0.1,0.1,0.1,0.2c2.1,2.5,6.5,8,10.3,13c1.9,2.5,3.7,4.8,5,6.6
		c0.7,0.9,1.2,1.6,1.6,2.1c0.2,0.3,0.3,0.5,0.4,0.6c0.1,0.1,0.1,0.1,0.1,0.2l0,0c0.1,0.2,0.4,0.4,0.6,0.4l5.9,0.4l0,0
		c0.3,0,0.5-0.1,0.6-0.4c0.1-0.2,0.2-0.5,0-0.8C-150.9,292.9-152.4,290.9-154.4,288.3z M-106.2,275.3l-3.1,0.3l-4.5-21.4l-1.7-8.1
		c0-0.2-0.2-0.3-0.4-0.4l-2.7-0.1c-0.2,0-0.4,0.1-0.4,0.3l-5.4,16.6l-6.9-13.9l-4.1-7.9c-0.1-0.2-0.3-0.3-0.4-0.2l-5.7,0.6
		c-0.1,0-0.2,0.1-0.3,0.2c-0.1,0.1-0.1,0.2-0.1,0.3l4.1,33.2l-2.2-0.4c-0.2,0-0.5,0.1-0.5,0.3l-0.6,2.8c0,0.1,0,0.3,0.1,0.4
		c0.1,0.1,0.2,0.2,0.3,0.2l9.9,0.8c0.1,0,0.2,0,0.3-0.1c0.1-0.1,0.1-0.2,0.1-0.3l-0.1-3.2c0-0.1-0.1-0.2-0.1-0.3
		c-0.1-0.1-0.2-0.1-0.3-0.1l-3,0.1l-1.3-24.6l10.1,20.4c0.1,0.2,0.2,0.3,0.4,0.2l2.3-0.1c0.2,0,0.4-0.1,0.4-0.3l4.2-15l3.6,20.3
		l-2.3,0.2c-0.2,0-0.4,0.2-0.4,0.5l0.1,4.2c0,0.1,0.1,0.3,0.2,0.3c0.1,0.1,0.2,0.1,0.3,0.1h0.1l10.7-2.5c0.2-0.1,0.4-0.3,0.3-0.5
		l-0.5-2.7C-105.8,275.4-106,275.3-106.2,275.3z M-92.5,274.3c-0.1-0.1-0.2-0.1-0.4-0.1l-2.4,0.5l-2.7-30.1c0-0.2-0.1-0.3-0.3-0.4
		c-0.1-0.1-0.3,0-0.4,0l-3,2.2c-0.1,0.1-0.2,0.2-0.2,0.4l0.5,28.9l-2.3,0.6c-0.2,0.1-0.4,0.3-0.3,0.5l0.7,2.9c0,0.1,0.1,0.2,0.2,0.3
		c0.1,0,0.1,0.1,0.2,0.1h0.1l9.9-2.7c0.2,0,0.3-0.2,0.3-0.4l0.2-2.4C-92.3,274.6-92.4,274.4-92.5,274.3z M-143,282.3l-2.4,0.5
		l-2.7-30.1c0-0.1-0.1-0.3-0.2-0.3c-0.1-0.1-0.3-0.1-0.4,0l-5.6,2.5c-0.2,0.1-0.3,0.3-0.3,0.5l3.5,17.5l2,10.8l-3.4,0.7
		c-0.1,0-0.2,0.1-0.3,0.2c-0.1,0.1-0.1,0.2,0,0.4l0.5,1.7c0.1,0.2,0.2,0.3,0.4,0.3h8.9c0.2,0,0.4-0.2,0.4-0.4v-3.7
		c0-0.1-0.1-0.3-0.2-0.3C-142.8,282.3-142.9,282.2-143,282.3z"/>
	<g>
		<path class="st2" d="M-146.9,244.1c-1.1-0.6-2.5-0.7-3.3-0.7c0.3,0.3,0.5,0.8,0.5,1.2c0.1,1.1-0.5,2.1-1.5,2.2
			c-0.9,0.1-1.8-0.7-1.9-1.8c-0.1-1.1,0.5-2.1,1.5-2.2c0.1,0,0.3,0,0.4,0c-0.3-0.8-1-2.1-1.9-2.7c-1.3,1.5-1.5,3.7-1.5,3.7
			s-2.1-0.3-3.6,1.1c0.7,1.5,3.2,2.3,3.2,2.3s-1.8,2.3-0.9,4.2c1.8-0.5,3.8-2.3,3.8-2.3s2.3,1.9,3.8,1.4c0.3-1-0.8-3.4-0.8-3.4
			S-147.4,246-146.9,244.1"/>
	</g>
	<g>
		<polyline class="st1" points="-73.3,289 -74.9,291.2 -79.4,291.5 -76.6,293.5 -77.9,295.3 -84,290.9 -82.6,289.1 -79.9,291.1 
			-81.1,286.9 -79.6,285 -78.4,289.3 -73.3,289 		"/>
	</g>
	<g>
		<g>
			<path class="st1" d="M-84.2,291l1.5-2.1l2.4,1.8l-1-3.7l1.7-2.3l1.2,4.5l5-0.3h0.4l-1.9,2.6l-4.1,0.2l2.6,1.9l-1.5,2.1L-84.2,291
				L-84.2,291z M-83.7,290.9l5.7,4.2l1.1-1.5l-2.8-2l0,0l-3-2.2L-83.7,290.9L-83.7,290.9z M-80.9,287l1.1,4.3l4.7-0.3l1.3-1.8
				l-4.9,0.3l-1.1-4.1L-80.9,287L-80.9,287z"/>
		</g>
	</g>
</g>
</svg>
